<svg xmlns="http://www.w3.org/2000/svg" viewBox="0 0 1600 500" role="img" aria-label="Abstract system dashboard background">
  <rect width="1600" height="500" fill="#0f172a"/>
  <g fill="none" stroke="#38bdf8" stroke-opacity="0.38" stroke-width="2">
    <path d="M80 380 C260 220 390 330 560 160 S900 70 1110 210 1390 340 1530 130"/>
    <path d="M40 280 C240 120 460 180 620 260 S900 410 1120 280 1370 120 1580 220"/>
    <path d="M120 430 C300 350 520 360 760 300 S1180 170 1500 310"/>
  </g>
  <g fill="#22c55e" fill-opacity="0.75">
    <circle cx="220" cy="260" r="7"/>
    <circle cx="560" cy="160" r="7"/>
    <circle cx="900" cy="92" r="7"/>
    <circle cx="1110" cy="210" r="7"/>
    <circle cx="1460" cy="165" r="7"/>
  </g>
  <g fill="#e2e8f0" fill-opacity="0.12">
    <rect x="940" y="60" width="420" height="70" rx="6"/>
    <rect x="980" y="150" width="500" height="42" rx="6"/>
    <rect x="1040" y="212" width="360" height="42" rx="6"/>
    <rect x="1160" y="274" width="280" height="42" rx="6"/>
  </g>
</svg>
